<?xml version="1.0" encoding="UTF-8" standalone="no"?>
<!DOCTYPE svg PUBLIC "-//W3C//DTD SVG 1.1//EN"
 "http://www.w3.org/Graphics/SVG/1.1/DTD/svg11.dtd">
<!-- Generated by graphviz version 2.38.0 (20140413.2041)
 -->
<!-- Title: %3 Pages: 1 -->
<svg width="792pt" height="355pt"
 viewBox="0.00 0.00 792.00 355.00" xmlns="http://www.w3.org/2000/svg" xmlns:xlink="http://www.w3.org/1999/xlink">
<g id="graph0" class="graph" transform="scale(1 1) rotate(0) translate(4 351)">
<title>%3</title>
<polygon fill="#333333" stroke="none" points="-4,4 -4,-351 788,-351 788,4 -4,4"/>
<text text-anchor="middle" x="392" y="-9.2" font-family="Times,serif" font-size="16.00" fill="white">Network Map</text>
<!-- SW1 -->
<g id="node1" class="node"><title>SW1</title>
<polygon fill="#006699" stroke="#006699" points="438.5,-99 349.5,-99 349.5,-26 438.5,-26 438.5,-99"/>
<text text-anchor="middle" x="394" y="-58.8" font-family="Helvetica,sans-Serif" font-size="14.00" fill="white">SW1</text>
</g>
<!-- R2 -->
<g id="node2" class="node"><title>R2</title>
<polygon fill="#006699" stroke="#006699" points="187,-223 111,-223 111,-150 187,-150 187,-223"/>
<text text-anchor="middle" x="149" y="-182.8" font-family="Helvetica,sans-Serif" font-size="14.00" fill="white">R2</text>
</g>
<!-- SW1&#45;&#45;R2 -->
<g id="edge4" class="edge"><title>SW1&#45;&#45;R2</title>
<path fill="none" stroke="green" stroke-dasharray="5,2" d="M349.437,-64.5353C272.751,-67.3604 120.874,-77.8793 88,-117 74.3745,-133.214 91.3714,-151.07 110.85,-164.485"/>
<text text-anchor="middle" x="138" y="-120.8" font-family="Courier,monospace" font-size="14.00" fill="white"> &#160;&#160;&#160;&#160;&#160;&#160;&#160;&#160;&#160;&#160;&#160;</text>
<text text-anchor="middle" x="81.8499" y="-153.285" font-family="Courier,monospace" font-size="14.00" fill="white">Eth 0/0</text>
<text text-anchor="middle" x="320.437" y="-53.3353" font-family="Courier,monospace" font-size="14.00" fill="white">Eth 0/2</text>
</g>
<!-- R3 -->
<g id="node3" class="node"><title>R3</title>
<polygon fill="#006699" stroke="#006699" points="432,-223 356,-223 356,-150 432,-150 432,-223"/>
<text text-anchor="middle" x="394" y="-182.8" font-family="Helvetica,sans-Serif" font-size="14.00" fill="white">R3</text>
</g>
<!-- SW1&#45;&#45;R3 -->
<g id="edge9" class="edge"><title>SW1&#45;&#45;R3</title>
<path fill="none" stroke="green" stroke-dasharray="5,2" d="M349.183,-92.0452C341.41,-99.1895 334.415,-107.554 330,-117 321.109,-136.02 337.43,-153.265 355.811,-165.694"/>
<text text-anchor="middle" x="380" y="-120.8" font-family="Courier,monospace" font-size="14.00" fill="white"> &#160;&#160;&#160;&#160;&#160;&#160;&#160;&#160;&#160;&#160;&#160;</text>
<text text-anchor="middle" x="326.811" y="-154.494" font-family="Courier,monospace" font-size="14.00" fill="white">Eth 0/0</text>
<text text-anchor="middle" x="320.183" y="-80.8452" font-family="Courier,monospace" font-size="14.00" fill="white">Eth 0/3</text>
</g>
<!-- R1 -->
<g id="node4" class="node"><title>R1</title>
<polygon fill="#006699" stroke="#006699" points="678,-223 602,-223 602,-150 678,-150 678,-223"/>
<text text-anchor="middle" x="640" y="-182.8" font-family="Helvetica,sans-Serif" font-size="14.00" fill="white">R1</text>
</g>
<!-- SW1&#45;&#45;R1 -->
<g id="edge8" class="edge"><title>SW1&#45;&#45;R1</title>
<path fill="none" stroke="green" stroke-dasharray="5,2" d="M438.654,-76.6577C468.201,-86.1317 507.366,-100.179 540,-117 561.511,-128.087 583.875,-143.037 601.986,-156.141"/>
<text text-anchor="middle" x="616" y="-120.8" font-family="Courier,monospace" font-size="14.00" fill="white"> &#160;&#160;&#160;&#160;&#160;&#160;&#160;&#160;&#160;&#160;&#160;</text>
<text text-anchor="middle" x="572.986" y="-144.941" font-family="Courier,monospace" font-size="14.00" fill="white">Eth 0/0</text>
<text text-anchor="middle" x="467.654" y="-65.4577" font-family="Courier,monospace" font-size="14.00" fill="white">Eth 0/1</text>
</g>
<!-- R2&#45;&#45;SW1 -->
<g id="edge6" class="edge"><title>R2&#45;&#45;SW1</title>
<path fill="none" stroke="green" stroke-dasharray="5,2" d="M181.585,-149.995C193.932,-138.178 208.719,-125.801 224,-117 263.414,-94.3012 313.617,-80.0302 349.223,-71.9925"/>
<text text-anchor="middle" x="274" y="-120.8" font-family="Courier,monospace" font-size="14.00" fill="white"> &#160;&#160;&#160;&#160;&#160;&#160;&#160;&#160;&#160;&#160;&#160;</text>
<text text-anchor="middle" x="278.723" y="-60.7925" font-family="Courier,monospace" font-size="14.00" fill="white">WS&#45;C3750&#45; Eth 0/2</text>
<text text-anchor="middle" x="152.585" y="-138.795" font-family="Courier,monospace" font-size="14.00" fill="white">Eth 0/0</text>
</g>
<!-- SW2 -->
<g id="node7" class="node"><title>SW2</title>
<polygon fill="#006699" stroke="#006699" points="193.5,-347 104.5,-347 104.5,-274 193.5,-274 193.5,-347"/>
<text text-anchor="middle" x="149" y="-306.8" font-family="Helvetica,sans-Serif" font-size="14.00" fill="white">SW2</text>
</g>
<!-- R2&#45;&#45;SW2 -->
<g id="edge7" class="edge"><title>R2&#45;&#45;SW2</title>
<path fill="none" stroke="green" stroke-dasharray="5,2" d="M149,-223.115C149,-239.01 149,-257.704 149,-273.629"/>
<text text-anchor="middle" x="199" y="-244.8" font-family="Courier,monospace" font-size="14.00" fill="white"> &#160;&#160;&#160;&#160;&#160;&#160;&#160;&#160;&#160;&#160;&#160;</text>
<text text-anchor="middle" x="74.5" y="-262.429" font-family="Courier,monospace" font-size="14.00" fill="white">WS&#45;C3750&#45; Eth 0/11</text>
<text text-anchor="middle" x="120" y="-226.915" font-family="Courier,monospace" font-size="14.00" fill="white">Eth 0/1</text>
</g>
<!-- R3&#45;&#45;SW1 -->
<g id="edge3" class="edge"><title>R3&#45;&#45;SW1</title>
<path fill="none" stroke="green" stroke-dasharray="5,2" d="M428.434,-149.865C434.449,-139.657 437.737,-128.239 434,-117 431.951,-110.837 428.884,-104.811 425.343,-99.1556"/>
<text text-anchor="middle" x="486" y="-120.8" font-family="Courier,monospace" font-size="14.00" fill="white"> &#160;&#160;&#160;&#160;&#160;&#160;&#160;&#160;&#160;&#160;&#160;</text>
<text text-anchor="middle" x="354.843" y="-102.956" font-family="Courier,monospace" font-size="14.00" fill="white">WS&#45;C3750&#45; Eth 0/3</text>
<text text-anchor="middle" x="399.434" y="-138.665" font-family="Courier,monospace" font-size="14.00" fill="white">Eth 0/0</text>
</g>
<!-- R4 -->
<g id="node5" class="node"><title>R4</title>
<polygon fill="#006699" stroke="#006699" points="371,-347 295,-347 295,-274 371,-274 371,-347"/>
<text text-anchor="middle" x="333" y="-306.8" font-family="Helvetica,sans-Serif" font-size="14.00" fill="white">R4</text>
</g>
<!-- R3&#45;&#45;R4 -->
<g id="edge2" class="edge"><title>R3&#45;&#45;R4</title>
<path fill="none" stroke="green" stroke-dasharray="5,2" d="M355.739,-213.06C347.007,-220.912 338.872,-230.337 334,-241 329.403,-251.061 328.014,-262.852 328.109,-273.788"/>
<text text-anchor="middle" x="384" y="-244.8" font-family="Courier,monospace" font-size="14.00" fill="white"> &#160;&#160;&#160;&#160;&#160;&#160;&#160;&#160;&#160;&#160;&#160;</text>
<text text-anchor="middle" x="299.109" y="-262.588" font-family="Courier,monospace" font-size="14.00" fill="white">Eth 0/0</text>
<text text-anchor="middle" x="326.739" y="-201.86" font-family="Courier,monospace" font-size="14.00" fill="white">Eth 0/1</text>
</g>
<!-- R5 -->
<g id="node6" class="node"><title>R5</title>
<polygon fill="#006699" stroke="#006699" points="494,-347 418,-347 418,-274 494,-274 494,-347"/>
<text text-anchor="middle" x="456" y="-306.8" font-family="Helvetica,sans-Serif" font-size="14.00" fill="white">R5</text>
</g>
<!-- R3&#45;&#45;R5 -->
<g id="edge1" class="edge"><title>R3&#45;&#45;R5</title>
<path fill="none" stroke="green" stroke-dasharray="5,2" d="M423.235,-223.279C427.175,-229.007 430.915,-235.023 434,-241 439.27,-251.212 443.593,-262.931 446.97,-273.755"/>
<text text-anchor="middle" x="491" y="-244.8" font-family="Courier,monospace" font-size="14.00" fill="white"> &#160;&#160;&#160;&#160;&#160;&#160;&#160;&#160;&#160;&#160;&#160;</text>
<text text-anchor="middle" x="417.97" y="-262.555" font-family="Courier,monospace" font-size="14.00" fill="white">Eth 0/0</text>
<text text-anchor="middle" x="394.235" y="-227.079" font-family="Courier,monospace" font-size="14.00" fill="white">Eth 0/2</text>
</g>
<!-- R1&#45;&#45;SW1 -->
<g id="edge5" class="edge"><title>R1&#45;&#45;SW1</title>
<path fill="none" stroke="green" stroke-dasharray="5,2" d="M677.716,-149.89C685.073,-138.841 688.269,-126.96 680,-117 649.829,-80.662 511.131,-68.8648 438.556,-65.1452"/>
<text text-anchor="middle" x="734" y="-120.8" font-family="Courier,monospace" font-size="14.00" fill="white"> &#160;&#160;&#160;&#160;&#160;&#160;&#160;&#160;&#160;&#160;&#160;</text>
<text text-anchor="middle" x="467.556" y="-53.9452" font-family="Courier,monospace" font-size="14.00" fill="white">Eth 0/1</text>
<text text-anchor="middle" x="648.716" y="-138.69" font-family="Courier,monospace" font-size="14.00" fill="white">Eth 0/0</text>
</g>
</g>
</svg>
